<svg width="48" height="48" viewBox="0 0 48 48" fill="none" xmlns="http://www.w3.org/2000/svg">
<circle cx="24" cy="24" r="23.25" fill="white" stroke="#E8E6F9" stroke-width="1.5"/>
<path d="M16.318 18.318C15.9001 18.7359 15.5687 19.232 15.3425 19.778C15.1164 20.3239 15 20.9091 15 21.5C15 22.091 15.1164 22.6762 15.3425 23.2221C15.5687 23.7681 15.9001 24.2642 16.318 24.682L24 32.364L31.682 24.682C32.5259 23.8381 33 22.6935 33 21.5C33 20.3066 32.5259 19.162 31.682 18.318C30.8381 17.4741 29.6935 17 28.5 17C27.3065 17 26.1619 17.4741 25.318 18.318L24 19.636L22.682 18.318C22.2641 17.9002 21.768 17.5687 21.2221 17.3425C20.6761 17.1164 20.0909 17 19.5 17C18.909 17 18.3239 17.1164 17.7779 17.3425C17.2319 17.5687 16.7359 17.9002 16.318 18.318V18.318Z" stroke="#7065F0" stroke-width="2" stroke-linecap="round" stroke-linejoin="round"/>
</svg>
