<svg width="32" height="32" viewBox="0 0 32 32" fill="none" xmlns="http://www.w3.org/2000/svg">
<path d="M6.66667 10.6667C4.45334 10.6667 2.66667 12.4534 2.66667 14.6667V25.3334C2.66667 27.5467 4.45334 29.3334 6.66667 29.3334H8.66667C10.1333 29.3334 11.3333 28.1334 11.3333 26.6667V13.3334C11.3333 11.8667 10.1333 10.6667 8.66667 10.6667H6.66667ZM8 22.6667C8 23.2134 7.54667 23.6667 7 23.6667C6.45334 23.6667 6 23.2134 6 22.6667V17.3334C6 16.7867 6.45334 16.3334 7 16.3334C7.54667 16.3334 8 16.7867 8 17.3334V22.6667Z" fill="white"/>
<path d="M25.3333 2.66675H17.3333C15.12 2.66675 13.3333 4.45341 13.3333 6.66675V25.3334C13.3333 27.5467 15.12 29.3334 17.3333 29.3334H18C18.3733 29.3334 18.6667 29.0401 18.6667 28.6667V24.0001C18.6667 23.2667 19.2667 22.6667 20 22.6667H22.6667C23.4 22.6667 24 23.2667 24 24.0001V28.6667C24 29.0401 24.2933 29.3334 24.6667 29.3334H25.3333C27.5467 29.3334 29.3333 27.5467 29.3333 25.3334V6.66675C29.3333 4.45341 27.5467 2.66675 25.3333 2.66675ZM19.6667 17.3334C19.6667 17.8801 19.2133 18.3334 18.6667 18.3334C18.12 18.3334 17.6667 17.8801 17.6667 17.3334V10.6667C17.6667 10.1201 18.12 9.66675 18.6667 9.66675C19.2133 9.66675 19.6667 10.1201 19.6667 10.6667V17.3334ZM25 17.3334C25 17.8801 24.5467 18.3334 24 18.3334C23.4533 18.3334 23 17.8801 23 17.3334V10.6667C23 10.1201 23.4533 9.66675 24 9.66675C24.5467 9.66675 25 10.1201 25 10.6667V17.3334Z" fill="white"/>
</svg>
