<svg width="32" height="32" viewBox="0 0 32 32" fill="none" xmlns="http://www.w3.org/2000/svg">
<path d="M23.3733 10.3601C23.28 10.3467 23.1867 10.3467 23.0933 10.3601C21.0267 10.2934 19.3867 8.60008 19.3867 6.52008C19.3867 4.40008 21.1067 2.66675 23.24 2.66675C25.36 2.66675 27.0933 4.38675 27.0933 6.52008C27.08 8.60008 25.44 10.2934 23.3733 10.3601Z" fill="white"/>
<path d="M27.72 19.6C26.2267 20.6 24.1333 20.9734 22.2 20.72C22.7067 19.6267 22.9733 18.4134 22.9867 17.1334C22.9867 15.8001 22.6933 14.5334 22.1333 13.4267C24.1067 13.16 26.2 13.5334 27.7067 14.5334C29.8133 15.92 29.8133 18.2 27.72 19.6Z" fill="white"/>
<path d="M8.58667 10.3601C8.68 10.3467 8.77334 10.3467 8.86667 10.3601C10.9333 10.2934 12.5733 8.60008 12.5733 6.52008C12.5733 4.38675 10.8533 2.66675 8.72 2.66675C6.6 2.66675 4.88 4.38675 4.88 6.52008C4.88 8.60008 6.52 10.2934 8.58667 10.3601Z" fill="white"/>
<path d="M8.73334 17.1334C8.73334 18.4267 9.01334 19.6534 9.52 20.7601C7.64 20.9601 5.68 20.5601 4.24 19.6134C2.13334 18.2134 2.13334 15.9334 4.24 14.5334C5.66667 13.5734 7.68 13.1867 9.57334 13.4001C9.02667 14.5201 8.73334 15.7867 8.73334 17.1334Z" fill="white"/>
<path d="M16.16 21.16C16.0533 21.1467 15.9333 21.1467 15.8133 21.16C13.36 21.08 11.4 19.0667 11.4 16.5867C11.4133 14.0533 13.4533 12 16 12C18.5333 12 20.5867 14.0533 20.5867 16.5867C20.5733 19.0667 18.6267 21.08 16.16 21.16Z" fill="white"/>
<path d="M11.8267 23.92C9.81335 25.2667 9.81335 27.48 11.8267 28.8134C14.12 30.3467 17.88 30.3467 20.1733 28.8134C22.1867 27.4667 22.1867 25.2534 20.1733 23.92C17.8933 22.3867 14.1333 22.3867 11.8267 23.92Z" fill="white"/>
</svg>
