<svg width="24" height="24" viewBox="0 0 24 24" fill="none" xmlns="http://www.w3.org/2000/svg">
<path d="M0 8C0 3.58172 3.58172 0 8 0H16C20.4183 0 24 3.58172 24 8V16C24 20.4183 20.4183 24 16 24H8C3.58172 24 0 20.4183 0 16V8Z" fill="#7065F0"/>
<path d="M17.1933 13.9534C15.82 15.32 13.8533 15.74 12.1267 15.2L8.98666 18.3334C8.76 18.5667 8.31333 18.7067 7.99333 18.66L6.54 18.46C6.06 18.3934 5.61333 17.94 5.54 17.46L5.34 16.0067C5.29333 15.6867 5.44666 15.24 5.66666 15.0134L8.8 11.88C8.26666 10.1467 8.68 8.18005 10.0533 6.81338C12.02 4.84671 15.2133 4.84671 17.1867 6.81338C19.16 8.78005 19.16 11.9867 17.1933 13.9534Z" fill="white"/>
<path d="M8.59332 15.6599L10.1267 17.1932" stroke="#7065F0" stroke-width="2" stroke-miterlimit="10" stroke-linecap="round" stroke-linejoin="round"/>
<path d="M13.6667 11.3333C14.2189 11.3333 14.6667 10.8855 14.6667 10.3333C14.6667 9.78097 14.2189 9.33325 13.6667 9.33325C13.1144 9.33325 12.6667 9.78097 12.6667 10.3333C12.6667 10.8855 13.1144 11.3333 13.6667 11.3333Z" fill="#7065F0" stroke="#7065F0" stroke-width="2" stroke-linecap="round" stroke-linejoin="round"/>
</svg>
