<svg width="24" height="24" viewBox="0 0 24 24" fill="none" xmlns="http://www.w3.org/2000/svg">
<path d="M0 8C0 3.58172 3.58172 0 8 0H16C20.4183 0 24 3.58172 24 8V16C24 20.4183 20.4183 24 16 24H8C3.58172 24 0 20.4183 0 16V8Z" fill="#7065F0"/>
<path d="M11.6667 17.9999C15.1645 17.9999 18 15.1644 18 11.6666C18 8.16878 15.1645 5.33325 11.6667 5.33325C8.16886 5.33325 5.33333 8.16878 5.33333 11.6666C5.33333 15.1644 8.16886 17.9999 11.6667 17.9999Z" stroke="white" stroke-width="2" stroke-linecap="round" stroke-linejoin="round"/>
<path d="M18.6667 18.6666L17.3333 17.3333" stroke="white" stroke-width="2" stroke-linecap="round" stroke-linejoin="round"/>
</svg>
